<svg id="Layer_1" enable-background="new 0 0 468 468" height="512" viewBox="0 0 468 468" width="512" xmlns="http://www.w3.org/2000/svg"><g><g><path id="XMLID_247_" d="m347.762 125.707c-47.139 7.36-84.384-13.539-114.473-45.126l-6.206 7.106c-29.855 34.063-74.686 44.815-118.435 36.262 6.816 100.582 16.916 199.052 125.314 239.476 107.738-41.221 118.287-138.831 125.09-239.476z" fill="#3baf15"/><g><path d="m130.373 146.607c15.942.656 31.552-1.036 46.268-5.04 5.628-1.531 8.762-7.533 6.799-13.025-1.746-4.885-6.95-7.671-11.954-6.304-19.966 5.458-41.53 5.877-62.838 1.711 5.376 79.326 12.8 157.336 68.872 206.595 4.363 3.833 11.053 3.206 14.58-1.408 3.181-4.16 2.627-10.091-1.311-13.544-43.494-38.128-54.534-96.815-60.416-168.985z" fill="#97c515"/><path d="m359.052 123.949-11.29 1.758c-21.009 3.28-40.048.938-57.368-5.456-4.898-1.808-10.36.463-12.54 5.207-2.423 5.272.114 11.537 5.557 13.546 17.302 6.385 35.345 9.039 53.892 7.929-5.874 71.794-17 130.245-60.806 168.665-3.941 3.457-4.488 9.397-1.297 13.556 3.533 4.606 10.22 5.224 14.579 1.39 56.179-49.412 63.897-127.055 69.273-206.595z" fill="#fff"/></g><path d="m257.241 211.33c0-12.972-10.473-23.488-23.391-23.488s-23.391 10.516-23.391 23.488c0 10.155 6.418 18.803 15.402 22.081l.18 41.736c.02 4.407 3.597 7.853 7.999 7.853h.035c4.419 0 7.984-3.503 7.966-7.921l-.18-41.732c8.973-3.285 15.38-11.871 15.38-22.017z" fill="#fff"/></g><g fill="#e6e6de"><ellipse cx="401.501" cy="403.006" rx="22.029" ry="21.994"/><ellipse cx="401.544" cy="64.994" rx="22.029" ry="21.994"/><ellipse cx="68.83" cy="403.006" rx="22.029" ry="21.994"/><ellipse cx="68.787" cy="64.994" rx="22.029" ry="21.994"/><ellipse cx="437.971" cy="232.001" rx="22.029" ry="21.994"/></g><g><ellipse cx="30.029" cy="232.001" fill="#e6e6de" rx="22.029" ry="21.994"/><path d="m437.971 202.006c-13.785 0-25.422 8.994-28.936 21.994h-53.848c3.159-15 5.456-30 7.242-46h39.072c4.418 0 7.499-3.271 7.499-7.689v-76.4c13-3.493 22.323-15.13 22.323-28.917 0-16.539-13.345-29.994-29.904-29.994-16.558 0-30.216 13.455-30.216 29.994 0 13.756 9.797 25.371 21.797 28.893v68.113h-28.917c1.163-12 2.09-24.925 2.951-37.666.345-5.107-4.256-9-9.212-8.23-9.5 1.817-19.106 3.186-28.797 3.186-32.19-.002-61.768-14.598-89.943-44.177-4.006-3.413-7.946-3.34-11.819.219-29.92 35.101-71.437 49.693-117.079 40.769-4.974-.973-9.863 3.125-9.517 8.235.877 12.943 1.8 25.664 2.927 37.664h-26.594v-68.113c12-3.522 21.901-15.136 21.901-28.893 0-16.539-13.513-29.994-30.071-29.994s-29.966 13.455-29.966 29.994c0 13.788 9.136 25.424 22.136 28.917v76.399c0 4.418 3.412 7.689 7.83 7.689h36.382c1.768 16 4.023 31 7.134 46h-53.38c-3.515-13-15.151-21.994-28.936-21.994-16.559.001-30.03 13.457-30.03 29.996 0 16.538 13.471 29.993 30.029 29.993 13.785 0 25.421-8.994 28.936-21.994h57.196c4.284 16.035 10.34 30.908 17.087 46h-64.418c-4.418 0-7.83 3.272-7.83 7.69v80.411c-13 3.507-22.113 15.133-22.113 28.905 0 16.539 13.428 29.994 29.986 29.994 16.559 0 30.093-13.455 30.093-29.994 0-13.772-8.966-25.398-21.966-28.905v-72.101h65.406c20.488 32 49.777 54.538 88.761 69.076 1.882.564 3.767.569 5.653.014 38.623-14.777 67.706-38.09 88.128-69.09h68.052v72.101c-12 3.507-21.779 15.133-21.779 28.905 0 16.539 13.596 29.994 30.155 29.994s29.841-13.455 29.841-29.994c0-13.772-9.217-25.398-22.217-28.905v-80.41c0-4.418-3.081-7.69-7.499-7.69h-67.342c6.877-15.047 12.917-29.985 17.192-46h57.683c3.515 13 15.151 21.994 28.936 21.994 16.559-.001 30.03-13.456 30.03-29.995s-13.471-29.994-30.029-29.994zm-50.455-137.012c0-7.717 6.293-13.994 14.028-13.994s14.029 6.277 14.029 13.994-6.294 13.994-14.029 13.994-14.028-6.277-14.028-13.994zm-332.758 0c0-7.717 6.294-13.994 14.029-13.994s14.029 6.277 14.029 13.994-6.294 13.994-14.029 13.994-14.029-6.277-14.029-13.994zm-24.729 181c-7.735 0-14.029-6.277-14.029-13.993 0-7.717 6.294-13.994 14.029-13.994s14.029 6.277 14.029 13.994c.001 7.716-6.293 13.993-14.029 13.993zm52.83 157.012c0 7.717-6.294 13.994-14.029 13.994s-14.028-6.277-14.028-13.994 6.293-13.994 14.028-13.994 14.029 6.277 14.029 13.994zm332.671 0c0 7.717-6.294 13.994-14.029 13.994s-14.029-6.277-14.029-13.994 6.294-13.994 14.029-13.994 14.029 6.277 14.029 13.994zm-298.194-269.548c43.165 5.563 87.267-7.884 116.324-41.139 31.447 30.49 72.458 48.458 116.711 41.078-7.479 102.809-22.89 184.176-116.445 221.453-93.611-36.4-109.059-118.058-116.59-221.392zm320.635 112.536c-7.735 0-14.029-6.277-14.029-13.993 0-7.717 6.294-13.994 14.029-13.994s14.029 6.277 14.029 13.994c0 7.716-6.294 13.993-14.029 13.993z" fill="#333"/></g></g></svg>