<svg id="Icons" height="512" viewBox="0 0 60 60" width="512" xmlns="http://www.w3.org/2000/svg"><path d="m1 6v32c0 2.76 7.61 5 17 5 1.77 0 3.48-.08 5.09-.22l11.91-18.75v-18.03z" fill="#4184a9"/><ellipse cx="18" cy="6" fill="#35718a" rx="17" ry="5"/><path d="m1 18c0 2.761 7.611 5 17 5s17-2.239 17-5v-4c0 2.761-7.611 5-17 5s-17-2.239-17-5z" fill="#6de08e"/><path d="m24.15 34.67a56.529 56.529 0 0 1 -6.15.33c-9.39 0-17-2.24-17-5v-4c0 2.76 7.61 5 17 5a51.018 51.018 0 0 0 8.51-.67z" fill="#6de08e"/><circle cx="41" cy="41" fill="#35718a" r="18"/><g fill="#fff"><path d="m32 36a2 2 0 0 1 2 2 1 1 0 0 0 2 0 4 4 0 1 0 -4 4 2 2 0 1 1 -2 2 1 1 0 0 0 -2 0 4 4 0 1 0 4-4 2 2 0 0 1 0-4z"/><path d="m42 34a4 4 0 0 0 -4 4v6a4 4 0 0 0 4 4 3.953 3.953 0 0 0 2.069-.594l.1.149a1 1 0 1 0 1.664-1.11l-.347-.521a3.949 3.949 0 0 0 .514-1.924v-6a4 4 0 0 0 -4-4zm1.832 9.445a1 1 0 0 0 -1.664 1.11l.792 1.188a1.966 1.966 0 0 1 -.96.257 2 2 0 0 1 -2-2v-6a2 2 0 0 1 4 0v5.7z"/><path d="m53 46h-3v-11a1 1 0 0 0 -2 0v12a1 1 0 0 0 1 1h4a1 1 0 0 0 0-2z"/></g></svg>