<?xml version="1.0" encoding="utf-8"?>
<!-- Generator: Adobe Illustrator 24.3.0, SVG Export Plug-In . SVG Version: 6.00 Build 0)  -->
<svg version="1.1" xmlns="http://www.w3.org/2000/svg" xmlns:xlink="http://www.w3.org/1999/xlink" x="0px" y="0px"
	 viewBox="0 0 1200 800" style="enable-background:new 0 0 1200 800;" xml:space="preserve">
<style type="text/css">
	.st0{fill:#FD9009;}
	.st1{fill:url(#SVGID_1_);}
	.st2{fill:url(#SVGID_2_);}
	.st3{fill:url(#SVGID_3_);}
	.st4{fill:url(#SVGID_4_);}
	.st5{fill:url(#SVGID_5_);}
	.st6{fill:#CED3F8;}
	.st7{fill:url(#SVGID_6_);}
	.st8{fill:url(#SVGID_7_);}
	.st9{fill:url(#SVGID_8_);}
	.st10{fill:url(#SVGID_9_);}
	.st11{fill:#FC780B;}
	.st12{fill:#EF4E16;}
	.st13{fill:#FFAD02;}
	.st14{fill:#FFFFFF;}
</style>
<g id="Background">
</g>
<g id="Name">
</g>
<g id="Wave_shape">
</g>
<g id="Abstract_shapes">
</g>
<g id="Objects">
	<g id="Microscheme">
	</g>
	<g id="Back_blocks">
	</g>
	<g id="Shadow_from_laptop">
	</g>
	<g id="Laptop">
	</g>
	<g id="Shapes_on_screen">
	</g>
	<g id="Accept_symbol">
	</g>
	<g id="Shadows_under_devops">
	</g>
	<g id="DevOps">
		<g>
			<polygon class="st0" points="512.5,471.6 512.5,471.6 512.5,467.1 512.5,396.5 390.1,396.5 390.1,486.4 512.5,486.4 512.5,478.7 
							"/>
			<linearGradient id="SVGID_1_" gradientUnits="userSpaceOnUse" x1="521.4193" y1="614.7142" x2="1143.4204" y2="614.7142">
				<stop  offset="0" style="stop-color:#EF4E16"/>
				<stop  offset="0.3786" style="stop-color:#DE3F11"/>
				<stop  offset="1" style="stop-color:#C6290A"/>
			</linearGradient>
			<path class="st1" d="M827.8,660.7c-173.8,0-315.3-81.7-315.3-182v7.7h0l0,70.7v11.6c0,100.4,141.4,182,315.3,182
				c91.2,0,173.4-22.5,231-58.3v-90C1001.2,638.3,919,660.7,827.8,660.7z"/>
			<linearGradient id="SVGID_2_" gradientUnits="userSpaceOnUse" x1="521.4193" y1="585.5536" x2="1143.4181" y2="585.5536">
				<stop  offset="0" style="stop-color:#FC780B"/>
				<stop  offset="1" style="stop-color:#EF4E16"/>
			</linearGradient>
			<path class="st2" d="M1059.1,602.2c-0.1,0.1-0.2,0.1-0.3,0.2v90c0.1-0.1,0.2-0.1,0.3-0.2c52.1-32.5,84-75.9,84-123.5v-90
				C1143.1,526.4,1111.2,569.8,1059.1,602.2z"/>
			<linearGradient id="SVGID_3_" gradientUnits="userSpaceOnUse" x1="227.5781" y1="205.199" x2="279.5744" y2="205.199">
				<stop  offset="0" style="stop-color:#EF4E16"/>
				<stop  offset="1" style="stop-color:#FC780B"/>
			</linearGradient>
			<path class="st3" d="M279.3,151.1c-31.6,15.1-51.7,37.9-51.7,63.4c0,16.6,8.6,32.1,23.3,45c7.9-6.9,17.4-13.1,28.4-18.4
				c0.1,0,0.2-0.1,0.3-0.1v-90C279.5,151,279.4,151,279.3,151.1z"/>
			<linearGradient id="SVGID_4_" gradientUnits="userSpaceOnUse" x1="223.1392" y1="214.4407" x2="513.6016" y2="214.4407">
				<stop  offset="0" style="stop-color:#EF4E16"/>
				<stop  offset="0.3786" style="stop-color:#DE3F11"/>
				<stop  offset="1" style="stop-color:#C6290A"/>
			</linearGradient>
			<path class="st4" d="M512.5,214.4c0-45.4-63.9-82.3-142.5-82.3c-34.3,0-65.9,7.1-90.5,18.8v90c24.6-11.7,56.1-18.8,90.5-18.8
				c74.1,0,135.1,32.8,141.8,74.5h0.6l0-68.7L512.5,214.4z"/>
			<linearGradient id="SVGID_5_" gradientUnits="userSpaceOnUse" x1="681.8056" y1="441.4474" x2="974.2446" y2="441.4474">
				<stop  offset="0" style="stop-color:#FD9009"/>
				<stop  offset="1" style="stop-color:#FC780B"/>
			</linearGradient>
			<path class="st5" d="M685.3,396.5l0,70.7l0,11.6c0,2.6,0.2,5.2,0.6,7.7l111.7,0v-90L685.3,396.5z"/>
			<rect x="382.3" y="396.5" class="st6" width="15.6" height="90"/>
			<rect x="789.9" y="396.5" class="st6" width="15.6" height="90"/>
			<path class="st6" d="M271.8,245c2.4-1.3,4.9-2.7,7.5-3.9c2.6-1.2,5.3-2.4,8.1-3.6v-90c-2.8,1.1-5.5,2.3-8.1,3.6
				c-2.6,1.2-5.1,2.6-7.5,3.9V245z"/>
			<path class="st6" d="M1052.5,696.1c2.2-1.3,4.5-2.6,6.6-3.9c2-1.3,4-2.6,6-3.9v-90c-2,1.3-3.9,2.6-6,3.9
				c-2.1,1.3-4.4,2.6-6.6,3.9V696.1z"/>
			<linearGradient id="SVGID_6_" gradientUnits="userSpaceOnUse" x1="681.8057" y1="460.0827" x2="974.243" y2="460.0827">
				<stop  offset="0" style="stop-color:#FC780B"/>
				<stop  offset="1" style="stop-color:#EF4E16"/>
			</linearGradient>
			<path class="st7" d="M827.8,396.5h-30.1h0v90h0h30.1c49.8,0,93.7,14.8,119.2,37.3c14.7-12.9,23.3-28.4,23.3-45
				C970.3,433.4,906.4,396.5,827.8,396.5z"/>
			<linearGradient id="SVGID_7_" gradientUnits="userSpaceOnUse" x1="56.8849" y1="350.4365" x2="511.6424" y2="350.4365">
				<stop  offset="0" style="stop-color:#FC780B"/>
				<stop  offset="1" style="stop-color:#EF4E16"/>
			</linearGradient>
			<path class="st8" d="M390.1,396.5h-20c-86.9,0-165.7-20.4-222.8-53.4c-57.1-33-92.4-78.5-92.4-128.6v90
				c0,50.2,35.4,95.7,92.4,128.6c57.1,33,135.9,53.4,222.8,53.4h20h0L390.1,396.5L390.1,396.5z"/>
		</g>
		<linearGradient id="SVGID_8_" gradientUnits="userSpaceOnUse" x1="360.0069" y1="180.4962" x2="425.0594" y2="180.4962">
			<stop  offset="0" style="stop-color:#FFFFFF"/>
			<stop  offset="1" style="stop-color:#E8ECF7"/>
		</linearGradient>
		<path class="st9" d="M360,132.4c0,15.5,0,71.3,0,90c3.3-0.1,6.7-0.3,10-0.3c19.5,0,38.1,2.3,55,6.4l0,0c0-15.8-9.3-72.1-64.9-96.1
			C360.1,132.4,360,132.4,360,132.4z"/>
		<linearGradient id="SVGID_9_" gradientUnits="userSpaceOnUse" x1="685.3218" y1="441.4474" x2="794.853" y2="441.4474">
			<stop  offset="0" style="stop-color:#E8ECF7"/>
			<stop  offset="1" style="stop-color:#FFFFFF"/>
		</linearGradient>
		<polygon class="st10" points="685.3,396.5 794.9,486.4 685.3,486.4 		"/>
		<g>
			<path class="st11" d="M685.3,228v-13.5c0-100.4-141.4-182-315.3-182c-82.5,0-157.7,18.4-213.9,48.5l0,70.2l123.2,0
				c24.7-11.8,56.3-18.9,90.8-18.9c78.6,0,142.5,36.9,142.5,82.3l0,13.5l86.4-49.9L685.3,228z"/>
			<path class="st11" d="M1059.1,602.2H937.5l0-71.1c-26.2,18.2-65.6,29.9-109.7,29.9c-78.6,0-142.5-36.9-142.5-82.3l0-11.6
				l-86.4-49.9l-86.4,49.9v11.6c0,100.4,141.4,182,315.3,182C919.1,660.7,1001.5,638.2,1059.1,602.2z"/>
			<polygon class="st12" points="685.3,467.1 685.3,228 598.9,178.1 512.5,228 512.5,467.1 598.9,417.2 			"/>
			<path class="st0" d="M390.1,296.7l-20.1,0c-78.6,0-142.5-36.9-142.5-82.3c0-25.5,20.1-48.3,51.7-63.4l-123.2,0l0-70.2
				C93.9,114.2,54.8,161.7,54.8,214.4c0,50.2,35.4,95.7,92.4,128.6c57.1,33,135.9,53.4,222.8,53.4h20l86.4-49.9L390.1,296.7z"/>
			<path class="st0" d="M1059.1,602.2c52.1-32.5,84-75.9,84-123.5c0-100.4-141.4-182-315.3-182l-30.1,0l86.4,49.9l-86.4,49.9h30.1
				c78.6,0,142.5,36.9,142.5,82.3c0,19.9-12.3,38.2-32.7,52.4l0,71.1H1059.1z"/>
			<polygon class="st13" points="797.7,296.7 390.1,296.7 476.5,346.6 390.1,396.5 797.7,396.5 884.1,346.6 			"/>
		</g>
		<path class="st14" d="M941.5,598.3l0-70.1c-1.3,1-2.6,1.9-3.9,2.9c-1.3,0.9-2.6,1.7-3.9,2.6l0,72.4h118.9c2.2-1.3,4.5-2.6,6.6-3.9
			c2-1.3,4-2.6,6-3.9H941.5z M512.5,462.6v9l86.4-49.9l86.4,49.9l0-4.5v-4.5l-86.4-49.9L512.5,462.6z M382.3,296.7l86.4,49.9
			l-86.4,49.9h15.6l86.4-49.9L398,296.7H382.3z M789.9,296.7l86.4,49.9l-86.4,49.9h15.6l86.4-49.9l-86.4-49.9H789.9z M512.5,232.5
			l86.4-49.9l86.4,49.9v-9l-86.4-49.9l-86.4,49.9l0,4.5V232.5z M160,78.9c-1.3,0.7-2.6,1.3-3.9,2c-1.3,0.7-2.6,1.4-3.9,2.1v72h119.5
			c2.4-1.3,4.9-2.7,7.5-3.9c2.9-1.4,5.9-2.7,8.9-3.9H160V78.9z"/>
	</g>
	<g id="Microscheme_1_">
	</g>
	<g id="Ruller">
	</g>
	<g id="Front_blocks">
	</g>
	<g id="Coding_symbol">
	</g>
	<g id="Speech_bubble">
	</g>
	<g id="Dollar_symbol">
	</g>
	<g id="Star">
	</g>
	<g id="Man">
	</g>
	<g id="Exclamation_symbol">
	</g>
	<g id="Pencil">
	</g>
	<g id="Woman">
	</g>
	<g id="Scientist">
	</g>
</g>
</svg>
